<?xml version="1.0" encoding="UTF-8" standalone="no"?>
<!DOCTYPE svg PUBLIC "-//W3C//DTD SVG 1.1//EN" "http://www.w3.org/Graphics/SVG/1.1/DTD/svg11.dtd">
<svg width="100%" height="100%" viewBox="0 0 996 913" version="1.1" xmlns="http://www.w3.org/2000/svg" xmlns:xlink="http://www.w3.org/1999/xlink" xml:space="preserve" xmlns:serif="http://www.serif.com/" style="fill-rule:evenodd;clip-rule:evenodd;stroke-miterlimit:10;">
    <g id="Layer-1" serif:id="Layer 1" transform="matrix(5.926645,0,0,5.158094,-259.326203,-92.205043)">
        <g id="Форма-6-copy" serif:id="Форма 6 copy" transform="matrix(1,0,0,1,0,0.43387)">
            <path d="M123,84L122.033,145.888C122.033,145.888 114.721,147.64 111.493,149.471C108.101,151.395 102.126,156.782 101.685,157.43L101.778,156.566C101.778,156.566 106.727,148.489 105.123,144.48C105.123,143.48 102.539,141.73 99.171,142.314C96.055,142.853 93.927,146.99 93.927,146.99L93.768,145.63C93.768,145.63 95.042,138.218 98,136C101,134 106,134 106,134C106,134 105.885,120.889 105.241,118.995C104.653,117.265 100.864,114.954 98.486,115.043C96.108,115.132 93.896,116.908 91.731,119.535C89.567,122.162 88.391,126.123 88.391,126.123C88.259,125.845 87.804,124.7 87.804,124.7C87.804,124.7 87.315,119.964 88,117C88,117 89,111 91,108C97,104 106,105 106,105C106,105 109,96 109,94L122.173,82.566L123,84Z" style="stroke:black;stroke-width:0.18px;"/>
        </g>
        <path id="Форма-6" serif:id="Форма 6" d="M122,83L106,93C106,94 105,104 105,104C105,104 97,103 92,107C85,113 88,125 88,125L91,118C92,116 95,114 98,114C101,114 105,119 105,119C106,121 105,132 105,132C105,132 101,132 98,134C94,137 94,146 94,146C94,146 97,142 99,141C101,140 104,142 105,144C106,148 103,155 102,157C102,157 108.298,149.769 111.612,148.259C114.693,146.855 121.211,145.265 121.211,145.265L122,83Z" style="fill:white;stroke:black;stroke-width:0.66px;stroke-linejoin:round;stroke-miterlimit:2;"/>
        <g id="Форма-1-copy" serif:id="Форма 1 copy" transform="matrix(0.89793,0,0,0.951741,13.13279,2.99203)">
            <path d="M124.583,25.668L133,62L118,62L117.577,61.3L124.583,25.668Z" style="stroke:black;stroke-width:0.2px;"/>
        </g>
        <path id="Форма-1" serif:id="Форма 1" d="M125,27L131,61L119,61L125,27Z" style="fill:white;stroke:black;stroke-width:0.66px;"/>
        <path id="Форма-2-copy" serif:id="Форма 2 copy" d="M174,82L182,74L179,86L179,144L184,153C180,147 145,180 148,183C148,183 132,169 117,171C102,174 82.115,185.755 82.115,185.755C82.115,185.755 95,170 104,162C118,151 126,152 126,152L128,84L136.329,72.431L137.108,73.547L137,76L154,63L174,82ZM184,153L184,153ZM136,82L133,153C135,152 153,159 152,160L164,153L162,94L145,77L136,82Z" style="stroke:black;stroke-width:0.18px;"/>
        <path id="Форма-2-copy-2" serif:id="Форма 2 copy 2" d="M164,88L167,153L151,164L131,162L128,84L138,81L146,75L164,88ZM187,152L187,152ZM138,84L138,152C140,150 155,159 154,160L163,151L161,96L144,80L138,84Z" style="stroke:black;stroke-width:0.18px;"/>
        <path id="Форма-2" serif:id="Форма 2" d="M173,81L181,75L177,85L177,143L181,150C177,144 143,174 145,177C145,177 130,165 116,167C101,170 84.115,183.755 84.115,183.755C84.115,183.755 95,166 103,159C117,148 124,148 124,148L126,81L136,73L136,77L154,62L173,81ZM136,82L136,151C138,149 153,157 153,158L161,152L160,95L143,78L136,82Z" style="fill:rgb(245,245,245);stroke:black;stroke-width:0.66px;"/>
        <path id="Форма-4-copy" serif:id="Форма 4 copy" d="M139.621,65.333C139.621,65.333 139.335,64.653 138.896,64.779C134.963,65.908 115.095,72.224 107,71.324C89,68.324 87.789,72.463 77.789,63.463C69.789,57.463 71.293,61.209 71.293,61.209C71.293,61.209 74.257,72.399 87.563,78.696C95.125,82.275 101.039,83.868 106.875,83.807C118.818,83.684 140.621,65.333 139.621,65.333Z" style="stroke:black;stroke-width:0.18px;"/>
        <path id="Форма-4" serif:id="Форма 4" d="M139,65C139,65 114.281,71.375 105.281,69.375C74.281,64.375 68.567,52.625 68.567,52.625C68.567,52.625 71,77 103,82C119,84 140,65 139,65Z" style="fill:white;stroke:black;stroke-width:0.66px;"/>
        <g id="Форма-5" serif:id="Форма 5" transform="matrix(1,0,0,1.022735,0.49788,-2.00663)">
            <path d="M150.683,101.778L148.725,102.003L149.019,103.833L146.988,108.412L143.117,108.42L142.028,108.549L141.452,109.485L142.028,110.588L143.879,110.137L146.961,109.903L146.829,114.694L145.462,115.046L148.094,118.378L148.492,118.444L151.299,114.974L151.343,114.229L149.976,114.861L150,111.4L152.559,111.4L151.939,112.676L152.669,112.89L156.585,109.468L156.398,108.86C156.398,108.86 153.23,107.074 152.447,106.469L152.54,108.39L150.063,108.437L150,103.51L152.197,103.496L152.429,103.427L150.683,101.778Z" style="stroke:black;stroke-width:0.18px;"/>
        </g>
        <path id="Форма-51" serif:id="Форма 5" d="M148.676,98.382L144.966,103.535L146.999,103.561L146.988,108.412L143.117,108.42L143.1,106.602L140.265,109.56L142.815,112.767L143.611,111.522L147,111.4L146.829,114.694L145.192,114.801L148.533,118.625L151.299,114.974L149.976,114.861L150,111.4L152.559,111.4L152.594,112.595L156.439,109.328L152.447,106.469L152.54,108.39L150.063,108.437L150,103.51L152.471,103.479L148.676,98.382Z" style="fill:white;stroke:black;stroke-width:0.66px;"/>
        <g id="Форма-52" serif:id="Форма 5" transform="matrix(1,0,0,1.022735,0.49788,24.633368)">
            <path d="M149.753,100.97L146.975,101.821L147.484,103.622L146.988,108.412L143.117,108.42L142.028,108.549L141.452,109.485L142.028,110.588L143.879,110.137L146.961,109.903L146.829,114.694L145.462,115.046L148.1,118.375L148.492,118.444L151.299,114.974L151.337,114.238L149.976,114.861L150,111.4L152.559,111.4L151.936,112.666L152.669,112.89L156.585,109.468L156.413,108.896C156.413,108.896 153.23,107.074 152.447,106.469L152.54,108.39L150.063,108.437L150.085,103.728L152.012,103.711L152.472,103.463L149.753,100.97Z" style="stroke:black;stroke-width:0.18px;"/>
        </g>
        <g id="Форма-53" serif:id="Форма 5" transform="matrix(1,0,0,1,0,26.639998)">
            <path d="M148.676,98.382L144.966,103.535L146.999,103.561L146.988,108.412L143.117,108.42L143.1,106.602L140.265,109.56L142.815,112.767L143.611,111.522L147,111.4L146.829,114.694L145.192,114.801L148.533,118.625L151.299,114.974L149.976,114.861L150,111.4L152.559,111.4L152.594,112.595L156.439,109.328C156.439,109.328 153.48,107.267 152.447,106.469L152.54,108.39L150.063,108.437L150,103.51L152.471,103.479L148.676,98.382Z" style="fill:white;stroke:black;stroke-width:0.66px;"/>
        </g>
        <g transform="matrix(0.978183,0.346664,-0.393086,1.109164,67.212531,-58.581614)">
            <g id="Форма-7" serif:id="Форма 7">
                <path d="M122.033,154.891L121.263,155.455L121,153L123.696,153.577L122.907,154.175L124.836,156.092L126.735,154.612L126.163,154.032L128.408,153.905L127.962,155.834L127.51,155.387L125.595,156.884L127.513,158.81L128.046,158.396L128.203,160.292L126.094,159.916L126.627,159.494L124.717,157.597L122.925,158.964L123.503,159.556L121.071,159.583L121.585,157.617L122.135,158.185L123.93,156.798L122.033,154.891Z" style="stroke:black;stroke-width:0.17px;stroke-linejoin:round;stroke-miterlimit:2;"/>
            </g>
        </g>
        <g transform="matrix(0.400903,0.350688,-0.397647,0.454584,137.590641,-59.359843)">
            <g id="Форма-71" serif:id="Форма 7">
                <path d="M122.033,154.891L121.263,155.455L121,153L123.696,153.577L122.907,154.175L124.836,156.092L126.735,154.612L126.163,154.032L128.408,153.905L127.962,155.834L127.51,155.387L125.595,156.884L127.513,158.81L128.046,158.396L128.203,160.292L126.094,159.916L126.627,159.494L124.717,157.597L122.925,158.964L123.503,159.556L121.071,159.583L121.585,157.617L122.135,158.185L123.93,156.798L122.033,154.891Z" style="stroke:black;stroke-width:0.34px;stroke-linejoin:round;stroke-miterlimit:2;"/>
            </g>
        </g>
    </g>
</svg>
